<?xml version="1.0" encoding="UTF-8"?>
<svg version="1.1" xmlns="http://www.w3.org/2000/svg" width="1200" height="1200">
<path d="M0 0 C21.18737579 16.82358023 34.17707349 39.40262615 42.10546875 65.1015625 C46.61185576 79.59130637 52.88444179 90.86510806 63.75 101.75 C64.65105469 102.66845703 64.65105469 102.66845703 65.5703125 103.60546875 C71.80034498 109.49837826 79.36291516 113.50719919 86.75 117.75 C88.6849928 118.86571726 90.61988154 119.98161502 92.5546875 121.09765625 C95.81277171 122.9760441 99.07135713 124.85353322 102.33154297 126.72827148 C110.67289331 131.53092154 118.97278725 136.40019686 127.25 141.3125 C128.3524707 141.96677979 129.45494141 142.62105957 130.59082031 143.29516602 C132.66580514 144.52843868 134.7397562 145.76345288 136.8125 147.00048828 C138.78793903 148.17701721 140.76718919 149.3471682 142.75 150.51123047 C143.6678125 151.05279785 144.585625 151.59436523 145.53125 152.15234375 C146.75424805 152.86958618 146.75424805 152.86958618 148.00195312 153.60131836 C148.57880859 153.9803833 149.15566406 154.35944824 149.75 154.75 C149.75 155.08 149.75 155.41 149.75 155.75 C142.1040801 155.18752088 134.66768084 154.13609263 127.13842773 152.70874023 C126.03432053 152.50376923 124.93021332 152.29879822 123.79264832 152.08761597 C121.41285921 151.64549596 119.03345892 151.20127888 116.65441704 150.75515556 C112.87336824 150.04731915 109.09089304 149.34764538 105.30787659 148.65040588 C94.55764567 146.66852703 83.80870726 144.67998487 73.06420898 142.66723633 C66.47295887 141.43260531 59.8787155 140.21518248 53.28257942 139.00688362 C50.78717115 138.54668953 48.29282113 138.08071403 45.79965019 137.60854912 C13.47226163 131.43186866 13.47226163 131.43186866 -16.88671875 142 C-34.97769834 155.39629563 -44.01017945 172.70502555 -52.375 193 C-68.69436998 232.46309844 -91.68955717 269.39656277 -118.25 302.75 C-118.79108398 303.43384766 -119.33216797 304.11769531 -119.88964844 304.82226562 C-126.1979933 312.77707 -132.66969881 320.50140312 -139.6171875 327.90625 C-141.57400307 330.01984308 -143.45443028 332.15235771 -145.32421875 334.33984375 C-149.84584476 339.52929799 -154.71851824 344.36838838 -159.5925293 349.22290039 C-161.18458966 350.80959946 -162.7712299 352.40157742 -164.35742188 353.99414062 C-169.81599047 359.45659804 -175.3561792 364.75472248 -181.25 369.75 C-182.33344194 370.69891256 -183.41552237 371.64938239 -184.49609375 372.6015625 C-193.4390561 380.40230766 -202.72801561 387.6711702 -212.25 394.75 C-212.97203613 395.2877002 -213.69407227 395.82540039 -214.43798828 396.37939453 C-289.59629925 452.10743122 -378.10882214 485.7859625 -593.25 518.75 C-594.86261719 518.83459473 -594.86261719 518.83459473 -596.5078125 518.92089844 C-641.88935987 521.23098323 -687.58587807 520.09709489 -732.8125 515.8125 C-733.65588928 515.73318237 -734.49927856 515.65386475 -735.3682251 515.57214355 C-747.73200311 514.38965626 -759.98340198 512.68964922 -772.25 510.75 C-769.45293329 509.1976738 -767.2243444 508.4546108 -764.04370117 508.17504883 C-763.21283493 508.09739288 -762.38196869 508.01973694 -761.52592468 507.93972778 C-760.62404922 507.86293793 -759.72217377 507.78614807 -758.79296875 507.70703125 C-756.81700762 507.52291184 -754.84109844 507.33823433 -752.86523438 507.15307617 C-751.81940186 507.05755463 -750.77356934 506.96203308 -749.69604492 506.86361694 C-660.62386497 498.63259874 -570.1586196 479.86748493 -468.25 434.75 C-467.21617187 434.275625 -466.18234375 433.80125 -465.1171875 433.3125 C-451.2386402 426.9348908 -437.91240246 419.83006895 -424.703125 412.16601562 C-422.63460518 410.97200538 -420.55791341 409.7979479 -418.46875 408.640625 C-400.95889235 398.88513288 -384.27851414 387.76940873 -368.25 375.75 C-367.63801758 375.29109375 -367.02603516 374.8321875 -366.39550781 374.359375 C-345.30938456 358.47176967 -325.56829181 341.12177439 -306.875 322.5 C-306.03050293 321.66017578 -305.18600586 320.82035156 -304.31591797 319.95507812 C-299.42026954 315.04681955 -294.75603768 310.01621117 -290.25 304.75 C-289.32454754 303.70168301 -288.39754654 302.65473033 -287.46875 301.609375 C-246.76964989 255.28918042 -209.62669329 195.24928917 -201.40234375 133.390625 C-195.13320793 86.63873975 -179.61111728 38.25540268 -141.25 7.75 C-99.79526548 -23.35445799 -43.93204831 -31.57615972 0 0 Z " fill="#000000" transform="translate(911.25,351.25)"/>
<path d="M0 0 C8.19895551 2.52689121 15.97564744 5.91440589 23.8125 9.375 C24.51385071 9.68334778 25.21520142 9.99169556 25.93780518 10.30938721 C39.13860009 16.11442811 52.23870577 22.12155205 65.2890625 28.2578125 C68.56560759 29.79785886 71.84683378 31.32770652 75.12893677 32.85586548 C100.27322997 44.56681199 125.26595153 56.53599027 149.53515625 69.98828125 C153.3980941 72.12871954 157.28210005 74.22363822 161.18359375 76.29296875 C177.08496417 84.73391714 192.60710832 93.67119281 208 103 C208.95277832 103.57637207 209.90555664 104.15274414 210.88720703 104.74658203 C235.80570534 119.86631912 259.84973471 136.29404672 283 154 C283.5990918 154.45729492 284.19818359 154.91458984 284.81542969 155.38574219 C308.2599095 173.3473431 331.87834857 193.59148145 350 217 C350.86361102 218.06434948 351.72962678 219.1267509 352.59765625 220.1875 C376.68412095 249.83632317 394.42241495 286.27220467 390.78173828 325.34228516 C387.37945819 353.53516855 374.10630909 377.20279611 355.0078125 397.78125 C353.60526218 399.33114996 352.26237613 400.93621491 350.96875 402.578125 C349.2116575 404.73962767 347.49725469 406.46188754 345.375 408.25 C343.16915994 410.1257691 340.99604095 412.0037391 338.890625 413.9921875 C328.90569206 423.39179679 317.4402008 430.99425276 306.125 438.6875 C302.09118155 441.44984292 298.36774198 444.34696201 294.6875 447.5625 C273.02660721 465.97282056 246.90899841 479.58247528 221 491 C220.67 490.34 220.34 489.68 220 489 C220.32162109 488.53327881 220.64324219 488.06655762 220.97460938 487.58569336 C246.31256448 450.64956943 259.11270962 409.19982911 251.47607422 364.14648438 C251.02316306 361.75415893 250.52376077 359.377798 250 357 C249.80664062 356.11505859 249.61328125 355.23011719 249.4140625 354.31835938 C234.84719725 289.80153332 194.01265485 233.62756971 149.66796875 185.9140625 C147.69949464 183.76401611 145.78914113 181.59504464 143.89160156 179.38452148 C139.80447336 174.70857509 135.46205857 170.31800935 131.06640625 165.93359375 C130.22963852 165.09586929 129.39287079 164.25814484 128.53074646 163.39503479 C126.77131896 161.63493065 125.01064347 159.87607323 123.2487793 158.1184082 C120.57030589 155.44529028 117.89721127 152.76687749 115.22460938 150.08789062 C113.50552885 148.36947097 111.78613811 146.65136158 110.06640625 144.93359375 C109.27657852 144.14174179 108.48675079 143.34988983 107.67298889 142.53404236 C103.4820419 138.36053247 99.21511283 134.34017098 94.72613525 130.48802185 C92.14954489 128.26686174 89.67672641 125.94363607 87.1875 123.625 C82.48971182 119.27995697 77.63406748 115.19390533 72.6484375 111.1796875 C70.02724881 109.02242601 67.50845719 106.78689 65 104.5 C59.8249007 99.79536428 54.43858803 95.39481861 49 91 C47.78057483 90.00082343 46.56186423 89.00077435 45.34375 88 C29.63705583 75.11945098 13.40104727 62.9782551 -3 51 C-3.77553223 50.43216797 -4.55106445 49.86433594 -5.35009766 49.27929688 C-15.40272848 41.9260813 -25.57307443 34.8128732 -36 28 C-32.00753204 26.66917735 -30.747865 27.70856966 -26.9375 29.40234375 C-26.32721451 29.67066513 -25.71692902 29.93898651 -25.08815002 30.21543884 C-23.05428327 31.1130341 -21.02717252 32.02489705 -19 32.9375 C-17.56267418 33.57690942 -16.12508777 34.21573335 -14.68725586 34.85400391 C-10.88295328 36.54707365 -7.08523689 38.25440796 -3.28973389 39.96710205 C-1.05882634 40.97346346 1.17331912 41.97702972 3.40576172 42.97998047 C23.0212078 51.80180968 42.43349831 61.00116957 61.75401306 70.449646 C66.60157798 72.81613785 71.47884148 75.11131844 76.375 77.375 C84.39119935 81.10728315 92.19210801 85.22061858 99.98828125 89.38964844 C103.61506132 91.32887034 107.24502565 93.26207864 110.875 95.1953125 C118.25254699 99.12544365 125.626989 103.06136615 133 107 C131.81978271 105.82195801 131.81978271 105.82195801 130.61572266 104.62011719 C129.11538565 103.11725955 127.6217995 101.60743746 126.1484375 100.078125 C121.65958115 95.45084576 116.87997344 91.38502695 111.85546875 87.3515625 C108.98191458 84.98510612 106.23717383 82.52241697 103.5 80 C98.1703211 75.1063174 92.63303512 70.53792156 87 66 C85.73493201 64.96705767 84.4706572 63.93314342 83.20703125 62.8984375 C75.54387812 56.62993373 67.82251665 50.46589442 59.93798828 44.47705078 C57.65993972 42.74082077 55.39064837 40.99341145 53.12109375 39.24609375 C40.5753536 29.60691256 27.8539869 20.31770223 14.7578125 11.44140625 C13.44417725 10.54941528 13.44417725 10.54941528 12.10400391 9.6394043 C10.39852568 8.48381728 8.68996901 7.33275757 6.97802734 6.18676758 C6.21184082 5.66880615 5.4456543 5.15084473 4.65625 4.6171875 C3.97369141 4.15940918 3.29113281 3.70163086 2.58789062 3.22998047 C1 2 1 2 0 0 Z " fill="#000000" transform="translate(253,249)"/>
</svg>
